<?xml version="1.0" standalone="no"?>
<!DOCTYPE svg PUBLIC "-//W3C//DTD SVG 20010904//EN"
 "http://www.w3.org/TR/2001/REC-SVG-20010904/DTD/svg10.dtd">
<svg version="1.0" xmlns="http://www.w3.org/2000/svg"
 width="16.000000pt" height="16.000000pt" viewBox="0 0 16.000000 16.000000"
 preserveAspectRatio="xMidYMid meet">
<metadata>
Created by potrace 1.11, written by Peter Selinger 2001-2013
</metadata>
<g transform="translate(0.000000,16.000000) scale(0.002667,-0.002667)"
fill="#000000" stroke="none">
<path d="M2837 4594 c-1 -1 -95 -5 -208 -8 -113 -4 -232 -8 -265 -11 -32 -2
-108 -7 -169 -10 -109 -6 -129 -7 -315 -20 -88 -7 -127 -11 -140 -14 -9 -2 -4
-1590 4 -1636 58 -308 128 -504 248 -690 135 -209 377 -448 618 -609 99 -66
279 -159 347 -179 46 -13 51 -13 130 18 293 116 642 392 858 680 85 114 188
311 234 453 27 80 39 132 77 322 8 40 12 1639 4 1641 -14 4 -52 7 -135 13
-169 12 -220 16 -315 21 -52 3 -126 7 -165 10 -180 11 -799 26 -808 19z m698
-88 c22 -2 108 -6 190 -10 83 -5 166 -9 185 -11 19 -2 80 -6 135 -10 55 -3
111 -8 125 -11 l25 -4 -2 -731 c-1 -802 -4 -843 -59 -1048 -55 -204 -145 -387
-273 -556 -59 -78 -245 -263 -346 -344 -168 -135 -441 -291 -513 -293 -63 -2
-328 144 -482 266 -150 117 -330 298 -413 413 -106 149 -195 340 -243 521 -53
205 -54 229 -54 1026 0 407 3 743 7 747 5 4 58 10 118 14 61 3 137 8 170 10
121 9 224 14 385 21 91 3 167 8 169 10 4 4 821 -5 876 -10z"/>
<path d="M2559 4073 c-33 -163 -35 -168 -59 -168 -36 0 -33 -29 3 -33 16 -2
34 1 41 7 7 6 26 74 41 151 15 77 30 138 32 136 3 -3 28 -69 57 -148 66 -184
73 -186 128 -33 22 61 43 119 48 130 4 11 11 29 14 39 8 24 13 19 20 -19 37
-210 60 -284 81 -263 2 2 -7 58 -21 123 -14 66 -30 146 -36 178 -9 52 -29 80
-44 64 -3 -3 -30 -72 -60 -153 -31 -82 -57 -150 -58 -152 -2 -1 -20 43 -41
100 -21 57 -46 127 -57 156 -13 35 -25 52 -37 52 -14 0 -23 -29 -52 -167z"/>
<path d="M3106 4103 c-36 -185 -42 -203 -68 -200 -32 3 -33 -21 -2 -29 48 -12
57 3 88 155 21 101 32 138 38 126 5 -8 29 -73 54 -143 25 -70 49 -131 54 -136
15 -15 35 0 48 40 8 22 28 80 47 129 18 50 36 99 39 109 9 25 14 18 22 -28 3
-21 8 -47 10 -57 2 -11 6 -27 8 -36 2 -10 10 -51 17 -90 11 -59 17 -73 31 -73
14 0 17 6 14 23 -24 107 -57 268 -61 296 -7 42 -12 51 -29 51 -15 0 -16 -2
-81 -180 -26 -69 -48 -126 -49 -128 -3 -2 -92 237 -111 296 -3 6 -13 12 -23
12 -17 0 -23 -19 -46 -137z"/>
<path d="M2169 3623 c13 -26 14 -46 3 -39 -4 2 -14 1 -22 -5 -12 -7 -10 -9 9
-9 14 0 21 -5 18 -12 -3 -7 -8 -22 -12 -33 -6 -19 -6 -19 8 -3 8 10 17 14 22
10 4 -4 4 4 1 18 -6 19 -5 21 3 10 8 -12 15 -12 28 -4 13 8 243 11 773 10 713
-1 755 -2 752 -18 -4 -23 3 -22 56 5 l43 23 -46 22 c-55 27 -55 27 -55 4 0
-18 -29 -19 -757 -19 -680 0 -759 2 -771 16 -8 9 -11 11 -8 5 3 -6 -1 -11 -8
-11 -9 0 -12 7 -8 16 3 9 2 13 -3 9 -4 -4 -14 0 -22 10 -13 15 -13 15 -4 -5z
m1640 -39 c2 -2 -8 -4 -22 -4 -18 0 -27 5 -27 15 0 13 4 14 23 4 12 -6 24 -13
26 -15z"/>
<path d="M2392 3429 c6 -106 56 -179 262 -384 211 -210 270 -260 284 -242 8 9
1 21 -29 47 -65 55 -91 81 -87 85 2 2 21 -12 43 -32 104 -94 92 -87 111 -69 9
9 15 19 13 21 -2 2 -76 77 -164 167 -166 169 -200 206 -324 348 -124 141 -114
136 -109 59z m285 -348 c73 -73 132 -135 130 -137 -2 -2 -61 53 -132 123 -118
118 -205 219 -205 238 0 4 16 -14 36 -41 20 -27 97 -109 171 -183z"/>
<path d="M3495 3363 c-193 -224 -600 -625 -743 -732 -35 -26 -36 -29 -23 -50
11 -18 26 -7 198 140 273 236 497 450 567 543 20 27 36 45 36 40 0 -17 -104
-140 -186 -220 -101 -99 -223 -209 -329 -299 -26 -22 -57 -49 -69 -60 -26 -22
-55 -48 -139 -118 -50 -43 -64 -67 -37 -67 9 0 234 186 355 294 371 332 490
482 483 606 l-3 51 -110 -128z"/>
<path d="M3036 2746 c-34 -28 -42 -17 93 -129 51 -43 98 -76 104 -74 21 7 15
23 -18 48 -19 14 -56 44 -82 66 -26 23 -59 50 -73 62 -14 11 -20 20 -15 20 6
0 28 -16 50 -36 22 -19 60 -52 85 -72 25 -20 51 -42 59 -49 11 -11 17 -11 30
2 9 10 12 19 6 25 -40 37 -196 161 -202 161 -5 -1 -21 -11 -37 -24z"/>
<path d="M3340 2654 c0 -5 -15 -25 -33 -45 -42 -47 -100 -118 -110 -135 -6
-11 9 -32 17 -23 122 143 154 188 141 199 -8 7 -15 9 -15 4z"/>
<path d="M2637 2644 c-4 -4 17 -34 45 -68 29 -34 39 -49 22 -34 l-30 28 -157
-130 c-101 -84 -155 -135 -151 -143 4 -7 16 -22 28 -35 15 -17 16 -21 5 -17
-9 3 -22 17 -29 31 -16 29 -18 29 -48 4 -25 -21 -21 -39 15 -72 17 -16 24 -12
128 74 61 49 130 107 154 127 25 20 62 51 82 69 l37 33 26 -33 c18 -23 28 -30
36 -22 7 7 -11 37 -62 102 -69 86 -86 101 -101 86z m43 -139 c14 -19 14 -19
-2 -6 -10 7 -18 18 -18 24 0 6 1 8 3 6 1 -2 9 -13 17 -24z m-25 -34 c-6 -5
-25 10 -25 20 0 5 6 4 14 -3 8 -7 12 -15 11 -17z m-41 -17 c5 -14 4 -15 -9 -4
-17 14 -19 20 -6 20 5 0 12 -7 15 -16z m-34 -19 c7 -9 8 -15 2 -15 -5 0 -12 7
-16 15 -3 8 -4 15 -2 15 2 0 9 -7 16 -15z m-30 -30 c7 -9 8 -15 2 -15 -5 0
-12 7 -16 15 -3 8 -4 15 -2 15 2 0 9 -7 16 -15z m-31 -28 c12 -15 12 -17 -3
-11 -9 3 -16 13 -16 22 0 8 1 13 3 11 1 -2 9 -12 16 -22z m-29 -32 c14 -19 14
-19 -2 -6 -10 7 -18 18 -18 24 0 6 1 8 3 6 1 -2 9 -13 17 -24z m-40 -15 c6
-11 8 -20 6 -20 -3 0 -10 9 -16 20 -6 11 -8 20 -6 20 3 0 10 -9 16 -20z m-30
-25 c7 -9 8 -15 2 -15 -5 0 -12 7 -16 15 -3 8 -4 15 -2 15 2 0 9 -7 16 -15z"/>
<path d="M3303 2547 c-35 -39 -36 -47 -6 -70 15 -12 84 -68 152 -124 68 -57
130 -103 137 -103 8 0 23 14 33 32 l20 31 -97 79 c-53 44 -117 96 -141 116
-77 64 -76 64 -98 39z m28 -40 c-10 -9 -11 -8 -5 6 3 10 9 15 12 12 3 -3 0
-11 -7 -18z m36 -22 c-4 -8 -12 -15 -19 -14 -10 0 -10 2 0 6 6 2 12 12 12 21
0 8 3 13 6 9 4 -3 4 -13 1 -22z m43 -19 c0 -2 -7 -9 -15 -16 -13 -11 -14 -10
-9 4 5 14 24 23 24 12z m24 -31 c-4 -8 -11 -15 -16 -15 -6 0 -5 6 2 15 7 8 14
15 16 15 2 0 1 -7 -2 -15z m30 -30 c-4 -8 -11 -15 -16 -15 -6 0 -5 6 2 15 7 8
14 15 16 15 2 0 1 -7 -2 -15z m22 -33 c-17 -16 -18 -16 -5 5 7 12 15 20 18 17
3 -2 -3 -12 -13 -22z m54 -6 c0 -2 -7 -9 -15 -16 -13 -11 -14 -10 -9 4 5 14
24 23 24 12z m15 -46 c-3 -5 -12 -10 -18 -10 -7 0 -6 4 3 10 19 12 23 12 15 0z
m35 -20 c-6 -11 -13 -20 -16 -20 -2 0 0 9 6 20 6 11 13 20 16 20 2 0 0 -9 -6
-20z"/>
<path d="M3640 2291 c0 -4 -11 -20 -25 -34 l-26 -25 29 -21 29 -20 20 22 c33
36 34 45 11 66 -23 22 -38 27 -38 12z"/>
<path d="M3574 2156 c-3 -9 -11 -13 -17 -9 -7 4 -8 -1 -4 -13 7 -18 6 -18 -7
-1 -12 15 -14 16 -20 2 -5 -13 -67 -15 -520 -15 -496 0 -515 1 -518 19 -3 18
-5 18 -53 -4 l-50 -22 49 -21 c58 -26 56 -26 56 -4 0 16 31 17 515 17 283 0
515 -4 515 -9 0 -4 7 -6 15 -2 10 3 15 -1 15 -12 0 -15 2 -15 10 -2 8 13 10
12 10 -2 0 -10 4 -18 9 -18 4 0 6 11 3 25 -3 20 -1 24 12 19 9 -3 16 -1 16 5
0 6 -9 11 -20 11 -18 0 -19 3 -10 21 7 11 9 23 6 26 -3 3 -8 -2 -12 -11z
m-1094 -26 c0 -5 -12 -10 -27 -9 -25 0 -26 1 -8 9 27 12 35 12 35 0z"/>
<path d="M3078 1979 c-10 -5 -15 -22 -14 -51 1 -39 4 -43 27 -46 32 -4 40 13
32 62 -6 38 -20 49 -45 35z m32 -25 c0 -11 -5 -14 -16 -10 -9 3 -18 6 -20 6
-3 0 -2 5 1 10 10 16 35 12 35 -6z m8 -41 c5 -17 -26 -29 -40 -15 -6 6 -7 15
-3 22 9 14 37 9 43 -7z"/>
<path d="M3160 1979 l-25 -7 28 -1 c32 -1 32 -1 12 -48 -23 -54 -10 -52 14 2
12 26 21 49 21 50 0 8 -28 11 -50 4z"/>
<path d="M3248 1983 c-28 -7 -22 -40 8 -47 32 -8 29 -42 -4 -39 -12 2 -22 -2
-22 -7 0 -11 20 -13 44 -4 26 10 20 53 -9 60 -31 8 -32 22 -2 26 12 2 18 6 12
9 -5 3 -18 4 -27 2z"/>
<path d="M2862 1947 c-1 -20 3 -37 9 -37 6 0 7 5 3 12 -4 6 1 17 11 25 16 11
16 13 3 13 -9 0 -18 6 -20 12 -3 7 -5 -4 -6 -25z"/>
<path d="M3010 1970 c-13 -8 -13 -10 2 -10 13 0 18 -11 21 -42 3 -41 4 -41 5
10 2 53 -2 59 -28 42z"/>
<path d="M2714 1936 c-3 -14 -4 -33 0 -41 6 -17 42 -20 51 -5 3 5 0 7 -9 4 -8
-3 -21 -2 -28 2 -9 6 -5 10 12 14 32 8 34 44 3 48 -17 3 -24 -3 -29 -22z m46
4 c0 -12 -28 -25 -36 -17 -9 9 6 27 22 27 8 0 14 -5 14 -10z"/>
<path d="M2795 1950 c-8 -12 2 -30 17 -30 6 0 5 7 -3 17 -13 15 -12 16 9 11
12 -4 20 -2 16 3 -7 12 -31 11 -39 -1z"/>
<path d="M2830 1904 c0 -11 -6 -15 -20 -11 -11 3 -20 1 -20 -4 0 -5 11 -9 24
-9 25 0 43 25 26 35 -6 4 -10 -1 -10 -11z"/>
<path d="M2867 1888 c6 -11 31 -10 37 1 3 5 -5 8 -18 7 -13 0 -22 -4 -19 -8z"/>
</g>
</svg>
